<svg width="24" height="22" viewBox="0 0 24 22" fill="none" xmlns="http://www.w3.org/2000/svg">
<path d="M9 12.25C9.69036 12.25 10.25 11.6904 10.25 11C10.25 10.3096 9.69036 9.75 9 9.75C8.30964 9.75 7.75 10.3096 7.75 11C7.75 11.6904 8.30964 12.25 9 12.25Z" fill="url(#paint0_linear_5426_6915)"/>
<path d="M15 12.25C15.6904 12.25 16.25 11.6904 16.25 11C16.25 10.3096 15.6904 9.75 15 9.75C14.3096 9.75 13.75 10.3096 13.75 11C13.75 11.6904 14.3096 12.25 15 12.25Z" fill="url(#paint1_linear_5426_6915)"/>
<path d="M22.9101 9.96C22.3901 4.32 17.6601 0 12.0001 0C6.34006 0 1.61006 4.32 1.09006 9.96L0.190062 19.82C0.0900622 20.99 1.01006 22 2.19006 22H21.8101C22.9901 22 23.9101 20.99 23.8001 19.82L22.9101 9.96ZM4.54006 7.13C5.41006 7.68 6.43006 8 7.50006 8C9.36006 8 11.0001 7.07 12.0001 5.65C13.0001 7.07 14.6401 8 16.5001 8C17.5701 8 18.5901 7.68 19.4601 7.13C19.8001 8.02 20.0001 8.99 20.0001 10C20.0001 14.41 16.4101 18 12.0001 18C7.59006 18 4.00006 14.41 4.00006 10C4.00006 8.99 4.20006 8.02 4.54006 7.13Z" fill="url(#paint2_linear_5426_6915)"/>
<defs>
<linearGradient id="paint0_linear_5426_6915" x1="9" y1="9.75" x2="9" y2="12.25" gradientUnits="userSpaceOnUse">
<stop stop-color="#8151E6"/>
<stop offset="1" stop-color="#FD7BA3"/>
</linearGradient>
<linearGradient id="paint1_linear_5426_6915" x1="15" y1="9.75" x2="15" y2="12.25" gradientUnits="userSpaceOnUse">
<stop stop-color="#8151E6"/>
<stop offset="1" stop-color="#FD7BA3"/>
</linearGradient>
<linearGradient id="paint2_linear_5426_6915" x1="11.9958" y1="0" x2="11.9958" y2="22" gradientUnits="userSpaceOnUse">
<stop stop-color="#8151E6"/>
<stop offset="1" stop-color="#FD7BA3"/>
</linearGradient>
</defs>
</svg>
