<svg width="24" height="21" viewBox="0 0 24 21" fill="none" xmlns="http://www.w3.org/2000/svg">
<path d="M23.5 9C23.7761 9 24 8.74814 24 8.4375V5.0625C24 4.75186 23.7761 4.5 23.5 4.5H20.5C20.2239 4.5 20 4.75186 20 5.0625V5.625H16.3333V4.5H16.8333C17.1095 4.5 17.3333 4.24814 17.3333 3.9375V0.5625C17.3333 0.251859 17.1095 0 16.8333 0H13.8333C13.5572 0 13.3333 0.251859 13.3333 0.5625V1.125H4V0.5625C4 0.251859 3.77613 0 3.5 0H0.5C0.223875 0 0 0.251859 0 0.5625V3.9375C0 4.24814 0.223875 4.5 0.5 4.5H1V12H0.5C0.223875 12 0 12.2519 0 12.5625V15.9375C0 16.2481 0.223875 16.5 0.5 16.5H3.5C3.77613 16.5 4 16.2481 4 15.9375V15.375H7.66667V16.5H7.16667C6.89054 16.5 6.66667 16.7519 6.66667 17.0625V20.4375C6.66667 20.7481 6.89054 21 7.16667 21H10.1667C10.4428 21 10.6667 20.7481 10.6667 20.4375V19.875H20V20.4375C20 20.7481 20.2239 21 20.5 21H23.5C23.7761 21 24 20.7481 24 20.4375V17.0625C24 16.7519 23.7761 16.5 23.5 16.5H23V9H23.5ZM14.6667 1.5H16V3H14.6667V1.5ZM14.6667 13.5H16V15H14.6667V13.5ZM2.66667 15H1.33333V13.5H2.66667V15ZM2.66667 3H1.33333V1.5H2.66667V3ZM4 13.125V12.5625C4 12.2519 3.77613 12 3.5 12H3V4.5H3.5C3.77613 4.5 4 4.24814 4 3.9375V3.375H13.3333V3.9375C13.3333 4.24814 13.5572 4.5 13.8333 4.5H14.3333V12H13.8333C13.5572 12 13.3333 12.2519 13.3333 12.5625V13.125H4ZM9.33333 19.5H8V18H9.33333V19.5ZM21 16.5H20.5C20.2239 16.5 20 16.7519 20 17.0625V17.625H10.6667V17.0625C10.6667 16.7519 10.4428 16.5 10.1667 16.5H9.66667V15.375H13.3333V15.9375C13.3333 16.2481 13.5572 16.5 13.8333 16.5H16.8333C17.1095 16.5 17.3333 16.2481 17.3333 15.9375V12.5625C17.3333 12.2519 17.1095 12 16.8333 12H16.3333V7.875H20V8.4375C20 8.74814 20.2239 9 20.5 9H21V16.5ZM22.6667 19.5H21.3333V18H22.6667V19.5ZM22.6667 7.5H21.3333V6H22.6667V7.5Z" fill="url(#paint0_linear_6172_2740)"/>
<defs>
<linearGradient id="paint0_linear_6172_2740" x1="12" y1="0" x2="12" y2="21" gradientUnits="userSpaceOnUse">
<stop stop-color="#8151E6"/>
<stop offset="1" stop-color="#FD7BA3"/>
</linearGradient>
</defs>
</svg>
