<svg width="24" height="24" viewBox="0 0 24 24" fill="none" xmlns="http://www.w3.org/2000/svg">
<path d="M23.5 11C23.7761 11 24 10.7481 24 10.4375V7.0625C24 6.75186 23.7761 6.5 23.5 6.5H20.5C20.2239 6.5 20 6.75186 20 7.0625V7.625H16.3333V6.5H16.8333C17.1095 6.5 17.3333 6.24814 17.3333 5.9375V2.5625C17.3333 2.25186 17.1095 2 16.8333 2H13.8333C13.5572 2 13.3333 2.25186 13.3333 2.5625V3.125H4V2.5625C4 2.25186 3.77613 2 3.5 2H0.5C0.223875 2 0 2.25186 0 2.5625V5.9375C0 6.24814 0.223875 6.5 0.5 6.5H1V14H0.5C0.223875 14 0 14.2519 0 14.5625V17.9375C0 18.2481 0.223875 18.5 0.5 18.5H3.5C3.77613 18.5 4 18.2481 4 17.9375V17.375H7.66667V18.5H7.16667C6.89054 18.5 6.66667 18.7519 6.66667 19.0625V22.4375C6.66667 22.7481 6.89054 23 7.16667 23H10.1667C10.4428 23 10.6667 22.7481 10.6667 22.4375V21.875H20V22.4375C20 22.7481 20.2239 23 20.5 23H23.5C23.7761 23 24 22.7481 24 22.4375V19.0625C24 18.7519 23.7761 18.5 23.5 18.5H23V11H23.5ZM14.6667 3.5H16V5H14.6667V3.5ZM14.6667 15.5H16V17H14.6667V15.5ZM2.66667 17H1.33333V15.5H2.66667V17ZM2.66667 5H1.33333V3.5H2.66667V5ZM4 15.125V14.5625C4 14.2519 3.77613 14 3.5 14H3V6.5H3.5C3.77613 6.5 4 6.24814 4 5.9375V5.375H13.3333V5.9375C13.3333 6.24814 13.5572 6.5 13.8333 6.5H14.3333V14H13.8333C13.5572 14 13.3333 14.2519 13.3333 14.5625V15.125H4ZM9.33333 21.5H8V20H9.33333V21.5ZM21 18.5H20.5C20.2239 18.5 20 18.7519 20 19.0625V19.625H10.6667V19.0625C10.6667 18.7519 10.4428 18.5 10.1667 18.5H9.66667V17.375H13.3333V17.9375C13.3333 18.2481 13.5572 18.5 13.8333 18.5H16.8333C17.1095 18.5 17.3333 18.2481 17.3333 17.9375V14.5625C17.3333 14.2519 17.1095 14 16.8333 14H16.3333V9.875H20V10.4375C20 10.7481 20.2239 11 20.5 11H21V18.5ZM22.6667 21.5H21.3333V20H22.6667V21.5ZM22.6667 9.5H21.3333V8H22.6667V9.5Z" fill="#424242"/>
</svg>
