<svg width="40" height="40" viewBox="0 0 40 40" fill="none" xmlns="http://www.w3.org/2000/svg">
<g opacity="0.4">
<rect width="40" height="40" rx="20" fill="black" fill-opacity="0.6"/>
<path d="M26.2577 11.5083C26.538 11.6244 26.7207 11.8978 26.7207 12.2012V16.4438C26.7207 16.858 26.3849 17.1938 25.9707 17.1938H21.728C21.4247 17.1938 21.1512 17.0111 21.0351 16.7308C20.9191 16.4506 20.9832 16.128 21.1977 15.9135L22.8007 14.3105C20.1674 13.2091 17.0161 13.7309 14.8735 15.8735C12.0422 18.7048 12.0422 23.2952 14.8735 26.1265C17.7048 28.9578 22.2952 28.9578 25.1265 26.1265C26.7727 24.4803 27.4622 22.2401 27.1935 20.0937C27.142 19.6827 27.4335 19.3078 27.8445 19.2563C28.2555 19.2049 28.6304 19.4963 28.6819 19.9073C29.0057 22.4934 28.1746 25.1997 26.1872 27.1872C22.7701 30.6043 17.2299 30.6043 13.8128 27.1872C10.3957 23.7701 10.3957 18.2299 13.8128 14.8128C16.5512 12.0744 20.6515 11.5312 23.9309 13.1803L25.4404 11.6709C25.6549 11.4564 25.9774 11.3922 26.2577 11.5083Z" fill="white"/>
</g>
</svg>
