<svg width="48" height="46" viewBox="0 0 48 46" fill="none" xmlns="http://www.w3.org/2000/svg">
<g filter="url(#filter0_d_5878_2789)">
<rect x="4" width="40" height="40" rx="20" fill="white"/>
<path d="M20 29.8182H14.6667C13.9333 29.8182 13.3053 29.6044 12.7827 29.1767C12.26 28.7491 11.9991 28.2356 12 27.6364V12.3636C12 11.7636 12.2613 11.2498 12.784 10.8222C13.3067 10.3945 13.9342 10.1811 14.6667 10.1818H20V12.3636H14.6667V27.6364H20V29.8182ZM22.6667 32V8H25.3333V32H22.6667ZM33.3333 12.3636V10.1818C34.0667 10.1818 34.6947 10.3956 35.2173 10.8233C35.74 11.2509 36.0009 11.7644 36 12.3636H33.3333ZM33.3333 21.0909V18.9091H36V21.0909H33.3333ZM33.3333 29.8182V27.6364H36C36 28.2364 35.7387 28.7502 35.216 29.1778C34.6933 29.6055 34.0658 29.8189 33.3333 29.8182ZM33.3333 16.7273V14.5455H36V16.7273H33.3333ZM33.3333 25.4545V23.2727H36V25.4545H33.3333ZM28 29.8182V27.6364H30.6667V29.8182H28ZM28 12.3636V10.1818H30.6667V12.3636H28Z" fill="#424242"/>
</g>
<defs>
<filter id="filter0_d_5878_2789" x="0" y="-2" width="48" height="48" filterUnits="userSpaceOnUse" color-interpolation-filters="sRGB">
<feFlood flood-opacity="0" result="BackgroundImageFix"/>
<feColorMatrix in="SourceAlpha" type="matrix" values="0 0 0 0 0 0 0 0 0 0 0 0 0 0 0 0 0 0 127 0" result="hardAlpha"/>
<feOffset dy="2"/>
<feGaussianBlur stdDeviation="2"/>
<feComposite in2="hardAlpha" operator="out"/>
<feColorMatrix type="matrix" values="0 0 0 0 0 0 0 0 0 0 0 0 0 0 0 0 0 0 0.15 0"/>
<feBlend mode="normal" in2="BackgroundImageFix" result="effect1_dropShadow_5878_2789"/>
<feBlend mode="normal" in="SourceGraphic" in2="effect1_dropShadow_5878_2789" result="shape"/>
</filter>
</defs>
</svg>
