<svg width="24" height="24" viewBox="0 0 24 24" fill="none" xmlns="http://www.w3.org/2000/svg">
<path d="M21.0945 7.53728L17.2133 3.65603C16.7913 3.2341 16.219 2.99707 15.6223 2.99707C15.0256 2.99707 14.4533 3.2341 14.0314 3.65603L2.907 14.7804C2.48508 15.2024 2.24805 15.7746 2.24805 16.3713C2.24805 16.9681 2.48508 17.5403 2.907 17.9623L5.72513 20.7804C5.79506 20.8503 5.8781 20.9056 5.96948 20.9432C6.06087 20.9809 6.15879 21.0001 6.25763 20.9998H20.2508C20.4497 20.9998 20.6404 20.9208 20.7811 20.7801C20.9217 20.6395 21.0008 20.4487 21.0008 20.2498C21.0008 20.0509 20.9217 19.8601 20.7811 19.7194C20.6404 19.5788 20.4497 19.4998 20.2508 19.4998H12.3101L21.0945 10.7192C21.5164 10.2972 21.7535 9.72493 21.7535 9.12822C21.7535 8.5315 21.5164 7.95923 21.0945 7.53728ZM10.1895 19.4998H6.56794L3.96919 16.901C3.82865 16.7604 3.7497 16.5697 3.7497 16.3709C3.7497 16.172 3.82865 15.9814 3.96919 15.8407L9.00075 10.8101L13.9404 15.7498L10.1895 19.4998ZM20.0333 9.65603L15.0008 14.6895L10.0611 9.74978L15.0945 4.71915C15.1642 4.64942 15.2469 4.5941 15.3379 4.55636C15.429 4.51861 15.5266 4.49919 15.6251 4.49919C15.7237 4.49919 15.8213 4.51861 15.9123 4.55636C16.0034 4.5941 16.0861 4.64942 16.1558 4.71915L20.0351 8.59853C20.1757 8.73917 20.2546 8.92986 20.2546 9.12868C20.2546 9.32751 20.1757 9.5182 20.0351 9.65884L20.0333 9.65603Z" fill="url(#paint0_linear_6165_602)"/>
<defs>
<linearGradient id="paint0_linear_6165_602" x1="12.0008" y1="2.99707" x2="12.0008" y2="20.9998" gradientUnits="userSpaceOnUse">
<stop stop-color="#8151E6"/>
<stop offset="1" stop-color="#FD7BA3"/>
</linearGradient>
</defs>
</svg>
