<svg width="28" height="28" viewBox="0 0 28 28" fill="none" xmlns="http://www.w3.org/2000/svg">
<path d="M10.5 16.625C10.0917 16.625 9.74633 16.4838 9.464 16.2015C9.18167 15.9192 9.04089 15.5742 9.04167 15.1667C9.04167 14.7583 9.18283 14.413 9.46517 14.1307C9.7475 13.8483 10.0924 13.7076 10.5 13.7083C10.9083 13.7083 11.2537 13.8495 11.536 14.1318C11.8183 14.4142 11.9591 14.7591 11.9583 15.1667C11.9583 15.575 11.8172 15.9203 11.5348 16.2027C11.2525 16.485 10.9076 16.6258 10.5 16.625ZM17.5 16.625C17.0917 16.625 16.7463 16.4838 16.464 16.2015C16.1817 15.9192 16.0409 15.5742 16.0417 15.1667C16.0417 14.7583 16.1828 14.413 16.4652 14.1307C16.7475 13.8483 17.0924 13.7076 17.5 13.7083C17.9083 13.7083 18.2537 13.8495 18.536 14.1318C18.8183 14.4142 18.9591 14.7591 18.9583 15.1667C18.9583 15.575 18.8172 15.9203 18.5348 16.2027C18.2525 16.485 17.9076 16.6258 17.5 16.625ZM14 23.3333C16.6056 23.3333 18.8125 22.4292 20.6208 20.6208C22.4292 18.8125 23.3333 16.6056 23.3333 14C23.3333 13.5333 23.3042 13.0814 23.2458 12.6443C23.1875 12.2072 23.0806 11.7841 22.925 11.375C22.5167 11.4722 22.1083 11.5453 21.7 11.5943C21.2917 11.6433 20.8639 11.6674 20.4167 11.6667C18.6472 11.6667 16.975 11.2875 15.4 10.5292C13.825 9.77083 12.4833 8.71111 11.375 7.35C10.7528 8.86667 9.86339 10.1842 8.70683 11.3027C7.55028 12.4211 6.20356 13.2619 4.66667 13.825V14C4.66667 16.6056 5.57083 18.8125 7.37917 20.6208C9.1875 22.4292 11.3944 23.3333 14 23.3333ZM14.0035 24.5C12.5522 24.5 11.1872 24.2247 9.9085 23.674C8.63061 23.1226 7.51878 22.3743 6.573 21.4293C5.62722 20.4851 4.87861 19.3744 4.32717 18.0973C3.77572 16.8202 3.5 15.4556 3.5 14.0035C3.5 12.5522 3.77533 11.1872 4.326 9.9085C4.87744 8.63061 5.62567 7.51878 6.57067 6.573C7.51489 5.62722 8.62556 4.87861 9.90267 4.32717C11.1798 3.77572 12.5444 3.5 13.9965 3.5C15.4478 3.5 16.8128 3.77533 18.0915 4.326C19.3694 4.87744 20.4812 5.62567 21.427 6.57067C22.3728 7.51489 23.1214 8.62556 23.6728 9.90267C24.2243 11.1798 24.5 12.5444 24.5 13.9965C24.5 15.4478 24.2247 16.8128 23.674 18.0915C23.1226 19.3694 22.3743 20.4812 21.4293 21.427C20.4851 22.3728 19.3744 23.1214 18.0973 23.6728C16.8202 24.2243 15.4556 24.5 14.0035 24.5ZM11.326 5.0365C12.2764 6.93661 13.6201 8.32222 15.3568 9.19333C17.0936 10.0644 18.7802 10.5 20.4167 10.5C20.7783 10.5 21.1342 10.4817 21.4842 10.4452C21.8342 10.4086 22.183 10.3483 22.5307 10.2643C21.7887 8.52989 20.6391 7.16333 19.082 6.16467C17.5249 5.166 15.8309 4.66667 14 4.66667C13.4882 4.66667 13.02 4.69622 12.5953 4.75533C12.1707 4.81444 11.7476 4.90817 11.326 5.0365ZM4.8265 12.4903C6.02739 11.956 7.24383 11.081 8.47583 9.86533C9.70861 8.64889 10.4273 7.12017 10.6318 5.27917C9.07239 5.87261 7.78128 6.8075 6.7585 8.08383C5.73494 9.35939 5.09094 10.8282 4.8265 12.4903Z" fill="#424242"/>
</svg>
