<svg width="20" height="20" viewBox="0 0 20 20" fill="none" xmlns="http://www.w3.org/2000/svg">
<path fill-rule="evenodd" clip-rule="evenodd" d="M2.44122 9.33334C2.50122 5.20001 5.89622 1.87501 10.0654 1.87501C11.3707 1.87283 12.6547 2.20547 13.7948 2.84115C14.9348 3.47683 15.8928 4.39429 16.5771 5.50584C16.6589 5.64679 16.6825 5.81413 16.6427 5.9722C16.6029 6.13026 16.503 6.26654 16.3642 6.35197C16.2254 6.43741 16.0587 6.46524 15.8997 6.42954C15.7406 6.39383 15.6018 6.29742 15.5129 6.16084C14.9404 5.23107 14.139 4.46372 13.1852 3.93219C12.2315 3.40067 11.1573 3.12275 10.0654 3.12501C6.57789 3.12501 3.75289 5.89834 3.69206 9.33168L4.02539 9.00084C4.14308 8.88404 4.30235 8.81877 4.46816 8.81939C4.63398 8.82002 4.79275 8.88649 4.90956 9.00418C5.02636 9.12187 5.09163 9.28114 5.09101 9.44695C5.09038 9.61276 5.02391 9.77154 4.90622 9.88834L3.50622 11.2767C3.38917 11.3927 3.23103 11.4578 3.06622 11.4578C2.90141 11.4578 2.74327 11.3927 2.62622 11.2767L1.22622 9.88834C1.16789 9.83056 1.12152 9.76186 1.08974 9.68615C1.05796 9.61045 1.04141 9.52923 1.04102 9.44712C1.04064 9.36502 1.05642 9.28365 1.08749 9.20765C1.11855 9.13164 1.16427 9.06251 1.22206 9.00418C1.27984 8.94585 1.34854 8.89947 1.42425 8.86769C1.49995 8.83592 1.58117 8.81936 1.66328 8.81898C1.74538 8.81859 1.82675 8.83438 1.90275 8.86544C1.97876 8.8965 2.04789 8.94223 2.10622 9.00001L2.44122 9.33334ZM16.4879 8.72251C16.6049 8.60674 16.7629 8.5418 16.9275 8.5418C17.0921 8.5418 17.25 8.60674 17.3671 8.72251L18.7721 10.1108C18.832 10.1682 18.8799 10.2368 18.9131 10.3129C18.9462 10.3889 18.9639 10.4707 18.9651 10.5537C18.9662 10.6366 18.9509 10.7189 18.92 10.7958C18.889 10.8728 18.843 10.9428 18.7848 11.0018C18.7265 11.0608 18.657 11.1076 18.5805 11.1395C18.5039 11.1714 18.4218 11.1877 18.3389 11.1876C18.2559 11.1874 18.1739 11.1707 18.0974 11.1385C18.021 11.1063 17.9518 11.0592 17.8937 11L17.5521 10.6625C17.4937 14.8 14.0846 18.125 9.90206 18.125C8.59349 18.1282 7.30591 17.7962 6.16197 17.1608C5.01803 16.5254 4.05584 15.6076 3.36706 14.495C3.32394 14.4251 3.29501 14.3475 3.28191 14.2664C3.26882 14.1853 3.27181 14.1025 3.29073 14.0226C3.30965 13.9427 3.34412 13.8673 3.39218 13.8007C3.44023 13.7342 3.50093 13.6777 3.57081 13.6346C3.64068 13.5915 3.71836 13.5625 3.79942 13.5494C3.88047 13.5364 3.96332 13.5394 4.04321 13.5583C4.12311 13.5772 4.1985 13.6117 4.26507 13.6597C4.33165 13.7078 4.38811 13.7685 4.43122 13.8383C5.00797 14.7695 5.81357 15.5375 6.77124 16.069C7.72891 16.6006 8.80675 16.8781 9.90206 16.875C13.4071 16.875 16.2437 14.0975 16.3021 10.6642L15.9621 11C15.8441 11.1166 15.6847 11.1816 15.5189 11.1806C15.3531 11.1797 15.1945 11.1129 15.0779 10.995C14.9613 10.8771 14.8963 10.7177 14.8973 10.5519C14.8982 10.3861 14.965 10.2274 15.0829 10.1108L16.4879 8.72251Z" fill="#424242"/>
</svg>
