<svg width="28" height="28" viewBox="0 0 28 28" fill="none" xmlns="http://www.w3.org/2000/svg">
<path fill-rule="evenodd" clip-rule="evenodd" d="M13.9987 7.00065C14.4628 7.00065 14.9079 6.81628 15.2361 6.48809C15.5643 6.1599 15.7487 5.71478 15.7487 5.25065C15.7487 4.78652 15.5643 4.3414 15.2361 4.01321C14.9079 3.68503 14.4628 3.50065 13.9987 3.50065C13.5346 3.50065 13.0894 3.68503 12.7613 4.01321C12.4331 4.3414 12.2487 4.78652 12.2487 5.25065C12.2487 5.71478 12.4331 6.1599 12.7613 6.48809C13.0894 6.81628 13.5346 7.00065 13.9987 7.00065ZM13.9987 8.16732C14.7722 8.16732 15.5141 7.86003 16.0611 7.31305C16.6081 6.76607 16.9154 6.0242 16.9154 5.25065C16.9154 4.4771 16.6081 3.73524 16.0611 3.18826C15.5141 2.64128 14.7722 2.33398 13.9987 2.33398C13.2251 2.33398 12.4833 2.64128 11.9363 3.18826C11.3893 3.73524 11.082 4.4771 11.082 5.25065C11.082 6.0242 11.3893 6.76607 11.9363 7.31305C12.4833 7.86003 13.2251 8.16732 13.9987 8.16732Z" fill="#424242"/>
<path fill-rule="evenodd" clip-rule="evenodd" d="M10.1343 10.6847C10.4012 10.7355 10.642 10.8779 10.8151 11.0873C10.9883 11.2966 11.083 11.5599 11.0828 11.8316V23.9182C11.0828 24.073 11.1442 24.2213 11.2536 24.3307C11.363 24.4401 11.5114 24.5016 11.6661 24.5016H11.7169C11.8625 24.5016 12.0029 24.4471 12.1104 24.3489C12.2179 24.2507 12.2848 24.1158 12.2979 23.9707L12.8328 18.0849C12.8328 17.7755 12.9557 17.4787 13.1745 17.26C13.3933 17.0412 13.69 16.9182 13.9995 16.9182C14.3089 16.9182 14.6056 17.0412 14.8244 17.26C15.0432 17.4787 15.1661 17.7755 15.1661 18.0849L15.701 23.9707C15.7141 24.1158 15.781 24.2507 15.8885 24.3489C15.996 24.4471 16.1364 24.5016 16.282 24.5016H16.3328C16.4875 24.5016 16.6359 24.4401 16.7453 24.3307C16.8547 24.2213 16.9161 24.073 16.9161 23.9182V11.8532C16.9161 11.5816 17.0108 11.3185 17.1839 11.1092C17.3571 10.9 17.5978 10.7577 17.8646 10.7069C18.889 10.5121 19.9722 10.242 21.1628 9.89491C21.2363 9.87346 21.3049 9.83774 21.3647 9.78978C21.4244 9.74182 21.4741 9.68256 21.5109 9.61539C21.5478 9.54823 21.571 9.47446 21.5793 9.39831C21.5877 9.32216 21.5809 9.24512 21.5595 9.17158C21.538 9.09803 21.5023 9.02944 21.4543 8.96971C21.4064 8.90997 21.3471 8.86027 21.2799 8.82343C21.2128 8.7866 21.139 8.76336 21.0629 8.75503C20.9867 8.7467 20.9097 8.75346 20.8361 8.77491C18.133 9.56241 16.0586 9.92758 14.0018 9.91824C11.9426 9.90891 9.86596 9.52507 7.15521 8.77316C7.08088 8.751 7.00288 8.74388 6.92577 8.75222C6.84866 8.76056 6.77399 8.7842 6.70612 8.82174C6.63826 8.85929 6.57856 8.90999 6.53053 8.97089C6.48249 9.03178 6.44708 9.10165 6.42637 9.17639C6.40566 9.25113 6.40006 9.32926 6.4099 9.40619C6.41974 9.48312 6.44482 9.55732 6.48368 9.62444C6.52254 9.69156 6.5744 9.75026 6.63622 9.7971C6.69804 9.84394 6.76857 9.87799 6.84371 9.89724C8.02962 10.2262 9.11054 10.4899 10.1343 10.6847ZM13.4033 24.3867C13.3009 24.7552 13.0806 25.0801 12.776 25.3116C12.4714 25.543 12.0994 25.6683 11.7169 25.6682H11.6661C11.202 25.6682 10.7569 25.4839 10.4287 25.1557C10.1005 24.8275 9.91612 24.3824 9.91612 23.9182V11.8316C8.85096 11.6286 7.73737 11.3556 6.53162 11.0207C6.30557 10.9635 6.09323 10.8617 5.90708 10.7213C5.72092 10.5809 5.56471 10.4047 5.44761 10.203C5.33051 10.0014 5.25489 9.77839 5.22519 9.54711C5.19549 9.31583 5.21231 9.08095 5.27466 8.85626C5.33702 8.63158 5.44364 8.42162 5.58828 8.23872C5.73292 8.05582 5.91265 7.90367 6.11691 7.79121C6.32118 7.67875 6.54586 7.60824 6.77775 7.58383C7.00965 7.55942 7.24409 7.58161 7.46729 7.64907C10.1331 8.38816 12.096 8.74283 14.007 8.75157C15.9122 8.75974 17.8675 8.42491 20.51 7.65491C20.7317 7.58703 20.9646 7.56388 21.1953 7.58679C21.426 7.6097 21.6499 7.67821 21.8539 7.78836C22.0578 7.8985 22.2379 8.04808 22.3836 8.2284C22.5293 8.40872 22.6377 8.61619 22.7026 8.83876C22.7674 9.06133 22.7874 9.29457 22.7613 9.52493C22.7353 9.75528 22.6637 9.97816 22.5508 10.1806C22.4379 10.3831 22.2858 10.5611 22.1035 10.7043C21.9212 10.8475 21.7123 10.9531 21.4889 11.0149C20.2732 11.3696 19.1532 11.6496 18.0828 11.8532V23.9182C18.0828 24.3824 17.8984 24.8275 17.5702 25.1557C17.242 25.4839 16.7969 25.6682 16.3328 25.6682H16.282C15.8453 25.6683 15.4244 25.5051 15.1019 25.2106C14.7794 24.9162 14.5786 24.5118 14.539 24.0769L14.0041 18.1911C14.0011 18.1567 13.9995 18.1223 13.9995 18.0878C13.9995 18.1222 13.9977 18.1561 13.9948 18.1905L13.4593 24.0763C13.4498 24.1812 13.4311 24.2851 13.4033 24.3867Z" fill="#424242"/>
</svg>
