<svg width="20" height="20" viewBox="0 0 20 20" fill="none" xmlns="http://www.w3.org/2000/svg">
<path d="M10.4618 13.755C10.4032 13.819 10.3319 13.8702 10.2525 13.9052C10.1731 13.9402 10.0873 13.9582 10.0005 13.9582C9.91373 13.9582 9.8279 13.9402 9.74849 13.9052C9.66908 13.8702 9.59782 13.819 9.53926 13.755L6.20593 10.1092C6.09671 9.98642 6.04022 9.8256 6.04868 9.66151C6.05714 9.49743 6.12988 9.34327 6.25115 9.23241C6.37242 9.12155 6.53246 9.0629 6.69665 9.06916C6.86083 9.07541 7.01595 9.14607 7.12843 9.26583L9.3751 11.7242V2.5C9.3751 2.33424 9.44095 2.17527 9.55816 2.05806C9.67537 1.94085 9.83434 1.875 10.0001 1.875C10.1659 1.875 10.3248 1.94085 10.442 2.05806C10.5592 2.17527 10.6251 2.33424 10.6251 2.5V11.7233L12.8726 9.265C12.9845 9.14267 13.1405 9.06982 13.3062 9.06247C13.4718 9.05513 13.6336 9.11389 13.7559 9.22583C13.8783 9.33778 13.9511 9.49373 13.9585 9.65939C13.9658 9.82505 13.907 9.98684 13.7951 10.1092L10.4618 13.755Z" fill="white"/>
<path d="M3.125 12.5C3.125 12.3342 3.05915 12.1753 2.94194 12.0581C2.82473 11.9408 2.66576 11.875 2.5 11.875C2.33424 11.875 2.17527 11.9408 2.05806 12.0581C1.94085 12.1753 1.875 12.3342 1.875 12.5V12.5458C1.875 13.685 1.875 14.6042 1.9725 15.3267C2.0725 16.0767 2.28917 16.7083 2.79 17.21C3.29167 17.7117 3.92333 17.9267 4.67333 18.0283C5.39583 18.125 6.315 18.125 7.45417 18.125H12.5458C13.685 18.125 14.6042 18.125 15.3267 18.0283C16.0767 17.9267 16.7083 17.7117 17.21 17.21C17.7117 16.7083 17.9267 16.0767 18.0283 15.3267C18.125 14.6042 18.125 13.685 18.125 12.5458V12.5C18.125 12.3342 18.0592 12.1753 17.9419 12.0581C17.8247 11.9408 17.6658 11.875 17.5 11.875C17.3342 11.875 17.1753 11.9408 17.0581 12.0581C16.9408 12.1753 16.875 12.3342 16.875 12.5C16.875 13.6958 16.8733 14.53 16.7892 15.16C16.7067 15.7717 16.5558 16.095 16.3258 16.3258C16.095 16.5567 15.7717 16.7067 15.1592 16.7892C14.53 16.8733 13.6958 16.875 12.5 16.875H7.5C6.30417 16.875 5.46917 16.8733 4.84 16.7892C4.22833 16.7067 3.905 16.5558 3.67417 16.3258C3.44333 16.095 3.29333 15.7717 3.21083 15.1592C3.12667 14.53 3.125 13.6958 3.125 12.5Z" fill="white"/>
</svg>
