<svg width="44" height="40" viewBox="0 0 44 40" fill="none" xmlns="http://www.w3.org/2000/svg">
<path d="M36 12V8H32V4H36V0H40V4H44V8H40V12H36ZM20 33C22.5 33 24.6253 32.1253 26.376 30.376C28.1267 28.6267 29.0013 26.5013 29 24C29 21.5 28.1253 19.3753 26.376 17.626C24.6267 15.8767 22.5013 15.0013 20 15C17.5 15 15.3753 15.8753 13.626 17.626C11.8767 19.3767 11.0013 21.5013 11 24C11 26.5 11.8753 28.6253 13.626 30.376C15.3767 32.1267 17.5013 33.0013 20 33ZM20 29C18.6 29 17.4167 28.5167 16.45 27.55C15.4833 26.5833 15 25.4 15 24C15 22.6 15.4833 21.4167 16.45 20.45C17.4167 19.4833 18.6 19 20 19C21.4 19 22.5833 19.4833 23.55 20.45C24.5167 21.4167 25 22.6 25 24C25 25.4 24.5167 26.5833 23.55 27.55C22.5833 28.5167 21.4 29 20 29ZM4 40C2.9 40 1.95867 39.6087 1.176 38.826C0.393333 38.0433 0.00133333 37.1013 0 36V12C0 10.9 0.392 9.95867 1.176 9.176C1.96 8.39333 2.90133 8.00133 4 8H10.3L14 4H28V12H32V16H40V36C40 37.1 39.6087 38.042 38.826 38.826C38.0433 39.61 37.1013 40.0013 36 40H4Z" fill="black"/>
</svg>
