<svg width="24" height="24" viewBox="0 0 24 24" fill="none" xmlns="http://www.w3.org/2000/svg">
<g clip-path="url(#clip0_6165_1718)">
<path d="M0 23.25C0 23.0469 0.0742188 22.8711 0.222656 22.7227L14.4727 8.47266C14.6211 8.32422 14.7969 8.25 15 8.25C15.2031 8.25 15.3789 8.32422 15.5273 8.47266C15.6758 8.62109 15.75 8.79688 15.75 9C15.75 9.20312 15.6758 9.37891 15.5273 9.52734L1.27734 23.7773C1.12891 23.9258 0.953125 24 0.75 24C0.546875 24 0.371094 23.9258 0.222656 23.7773C0.0742188 23.6289 0 23.4531 0 23.25ZM16.5 0H18V3H16.5V0ZM14.0742 4.62891L11.9414 2.50781L13.0078 1.44141L15.1289 3.57422L14.0742 4.62891ZM13.5 7.5H10.5V6H13.5V7.5ZM16.5 10.5H18V13.5H16.5V10.5ZM20.4258 8.87109L22.5586 10.9922L21.4922 12.0586L19.3711 9.92578L20.4258 8.87109ZM24 6V7.5H21V6H24ZM20.4258 4.62891L19.3711 3.57422L21.4922 1.44141L22.5586 2.50781L20.4258 4.62891ZM17.25 6C17.4531 6 17.6289 6.07422 17.7773 6.22266C17.9258 6.37109 18 6.54688 18 6.75C18 6.95312 17.9258 7.12891 17.7773 7.27734C17.6289 7.42578 17.4531 7.5 17.25 7.5C17.0469 7.5 16.8711 7.42578 16.7227 7.27734C16.5742 7.12891 16.5 6.95312 16.5 6.75C16.5 6.54688 16.5742 6.37109 16.7227 6.22266C16.8711 6.07422 17.0469 6 17.25 6Z" fill="white"/>
</g>
<defs>
<clipPath id="clip0_6165_1718">
<rect width="24" height="24" fill="white"/>
</clipPath>
</defs>
</svg>
