<svg width="40" height="58" viewBox="0 0 40 58" fill="none" xmlns="http://www.w3.org/2000/svg">
<circle cx="20" cy="20" r="20" fill="#F4F4F4"/>
<path d="M29.1431 23.4284C25.5203 18.857 22.0917 16.5713 18.8574 16.5713C15.6231 16.5713 12.9569 17.7141 10.8574 19.9999" stroke="#A2A2A2" stroke-width="1.5" stroke-linecap="round" stroke-linejoin="round"/>
<path d="M23.4287 23.4286H29.143V17.7144" stroke="#A2A2A2" stroke-width="1.19048" stroke-linecap="round" stroke-linejoin="round"/>
<path d="M23.3633 49.1484V50.8711C23.3633 51.6185 23.2835 52.2633 23.124 52.8057C22.9645 53.3434 22.7344 53.7855 22.4336 54.1318C22.1374 54.4736 21.7842 54.7266 21.374 54.8906C20.9639 55.0547 20.5081 55.1367 20.0068 55.1367C19.6058 55.1367 19.2321 55.0866 18.8857 54.9863C18.5394 54.8815 18.2272 54.7197 17.9492 54.501C17.6758 54.2822 17.4388 54.0065 17.2383 53.6738C17.0423 53.3366 16.8919 52.9355 16.7871 52.4707C16.6823 52.0059 16.6299 51.4727 16.6299 50.8711V49.1484C16.6299 48.401 16.7096 47.7607 16.8691 47.2275C17.0332 46.6898 17.2633 46.25 17.5596 45.9082C17.8604 45.5664 18.2158 45.3158 18.626 45.1562C19.0361 44.9922 19.4919 44.9102 19.9932 44.9102C20.3942 44.9102 20.7656 44.9626 21.1074 45.0674C21.4538 45.1676 21.766 45.3249 22.0439 45.5391C22.3219 45.7533 22.5589 46.029 22.7549 46.3662C22.9508 46.6989 23.1012 47.0977 23.2061 47.5625C23.3109 48.0228 23.3633 48.5514 23.3633 49.1484ZM21.3877 51.1309V48.8818C21.3877 48.5218 21.3672 48.2074 21.3262 47.9385C21.2897 47.6696 21.2327 47.4417 21.1553 47.2549C21.0778 47.0635 20.9821 46.9085 20.8682 46.79C20.7542 46.6715 20.6243 46.585 20.4785 46.5303C20.3327 46.4756 20.1709 46.4482 19.9932 46.4482C19.7699 46.4482 19.5716 46.4915 19.3984 46.5781C19.2298 46.6647 19.0863 46.8037 18.9678 46.9951C18.8493 47.182 18.7581 47.4326 18.6943 47.7471C18.6351 48.057 18.6055 48.4352 18.6055 48.8818V51.1309C18.6055 51.4909 18.6237 51.8076 18.6602 52.0811C18.7012 52.3545 18.7604 52.5892 18.8379 52.7852C18.9199 52.9766 19.0156 53.1338 19.125 53.2568C19.2389 53.3753 19.3688 53.4619 19.5146 53.5166C19.665 53.5713 19.8291 53.5986 20.0068 53.5986C20.2256 53.5986 20.4193 53.5553 20.5879 53.4688C20.7611 53.3776 20.9069 53.2363 21.0254 53.0449C21.1484 52.849 21.2396 52.5938 21.2988 52.2793C21.3581 51.9648 21.3877 51.582 21.3877 51.1309Z" fill="#A1A1A1"/>
</svg>
