<svg width="28" height="28" viewBox="0 0 28 28" fill="none" xmlns="http://www.w3.org/2000/svg">
<g clip-path="url(#clip0_5457_5573)">
<path d="M7.9352 12.1351C7.94637 12.3826 7.86494 12.6254 7.7068 12.8162C7.54865 13.007 7.32512 13.132 7.0798 13.1669C5.285 13.3839 3.9984 13.9397 3.1878 14.8049C2.3814 15.6617 1.9642 16.7789 1.9292 18.0949C2.0552 19.5047 2.52 20.5617 3.325 21.3177C4.1258 22.0695 5.3284 22.4685 6.9692 22.4797L21.9072 22.4811C23.3016 22.3873 24.3292 21.8595 25.0586 20.8865C25.9812 19.6601 26.1744 18.5555 26.0134 17.3207C25.893 16.3939 25.3204 15.2179 24.3936 14.4185C23.6866 13.8081 22.5736 13.4371 21.0322 13.3405C20.5086 13.3083 20.1068 12.8463 20.1222 12.3003C20.1857 10.7812 19.736 9.28497 18.8454 8.05267C17.6246 6.33067 15.7332 5.45287 13.874 5.52427C12.0554 5.59427 10.3712 6.45247 9.1546 8.07507C8.2978 9.21747 7.8946 10.5559 7.9352 12.1351ZM20.3994 6.85007C21.3612 8.18688 21.9286 9.76665 22.0374 11.4099C23.534 11.6143 24.7324 12.0903 25.6256 12.8603C26.9472 14.0013 27.748 15.6421 27.93 17.0477C28.1554 18.7795 27.867 20.4217 26.5804 22.1339C25.4968 23.5759 23.9554 24.3683 21.9674 24.4999H6.9622C4.8776 24.4859 3.2214 23.9371 2.0314 22.8199C0.847 21.7083 0.1708 20.1767 0 18.1649C0.042 16.2385 0.644 14.6299 1.806 13.3909C2.8098 12.3199 4.221 11.6269 6.0186 11.2895C6.125 9.61647 6.6626 8.12127 7.6328 6.83047C9.2078 4.72767 11.4282 3.59787 13.8026 3.50687C16.2778 3.41167 18.7852 4.57367 20.3994 6.85007ZM13.552 9.98887L10.78 12.8477C10.5957 13.0374 10.4918 13.291 10.49 13.5555C10.4882 13.82 10.5886 14.075 10.7702 14.2673C10.8597 14.3596 10.9671 14.4328 11.0857 14.4825C11.2043 14.5323 11.3318 14.5574 11.4604 14.5565C11.589 14.5556 11.7161 14.5286 11.834 14.4772C11.9519 14.4258 12.0582 14.3511 12.1464 14.2575L13.2482 13.1221V19.0567C13.2482 19.5677 13.6122 19.9905 14.0854 20.0577L14.217 20.0675C14.7504 20.0675 15.183 19.6139 15.183 19.0567V13.1011L16.2764 14.2295C16.366 14.322 16.4734 14.3954 16.5921 14.4453C16.7109 14.4951 16.8385 14.5203 16.9673 14.5194C17.0961 14.5185 17.2233 14.4915 17.3414 14.4399C17.4594 14.3884 17.5658 14.3135 17.654 14.2197C17.8381 14.0297 17.9417 13.7761 17.9433 13.5116C17.9448 13.2471 17.8442 12.9922 17.6624 12.8001L14.9282 9.98187C14.8388 9.88945 14.7315 9.81611 14.6129 9.76629C14.4944 9.71646 14.3669 9.69117 14.2383 9.69196C14.1097 9.69274 13.9826 9.71958 13.8646 9.77085C13.7467 9.82213 13.6403 9.89537 13.552 9.98887Z" fill="#4B4B4B"/>
</g>
<defs>
<clipPath id="clip0_5457_5573">
<rect width="28" height="28" fill="white"/>
</clipPath>
</defs>
</svg>
