<svg width="28" height="22" viewBox="0 0 28 22" fill="none" xmlns="http://www.w3.org/2000/svg">
<path d="M7.9352 9.13556C7.94637 9.3831 7.86494 9.62593 7.7068 9.81668C7.54865 10.0074 7.32512 10.1325 7.0798 10.1674C5.285 10.3844 3.9984 10.9402 3.1878 11.8054C2.3814 12.6622 1.9642 13.7794 1.9292 15.0954C2.0552 16.5052 2.52 17.5622 3.325 18.3182C4.1258 19.07 5.3284 19.469 6.9692 19.4802L21.9072 19.4816C23.3016 19.3878 24.3292 18.86 25.0586 17.887C25.9812 16.6606 26.1744 15.556 26.0134 14.3212C25.893 13.3944 25.3204 12.2184 24.3936 11.419C23.6866 10.8086 22.5736 10.4376 21.0322 10.341C20.5086 10.3088 20.1068 9.84676 20.1222 9.30076C20.1857 7.78168 19.736 6.28545 18.8454 5.05316C17.6246 3.33116 15.7332 2.45336 13.874 2.52476C12.0554 2.59476 10.3712 3.45296 9.1546 5.07556C8.2978 6.21796 7.8946 7.55636 7.9352 9.13556ZM20.3994 3.85056C21.3612 5.18737 21.9286 6.76714 22.0374 8.41036C23.534 8.61476 24.7324 9.09076 25.6256 9.86076C26.9472 11.0018 27.748 12.6426 27.93 14.0482C28.1554 15.78 27.867 17.4222 26.5804 19.1344C25.4968 20.5764 23.9554 21.3688 21.9674 21.5004H6.9622C4.8776 21.4864 3.2214 20.9376 2.0314 19.8204C0.847 18.7088 0.1708 17.1772 0 15.1654C0.042 13.239 0.644 11.6304 1.806 10.3914C2.8098 9.32036 4.221 8.62736 6.0186 8.28996C6.125 6.61696 6.6626 5.12176 7.6328 3.83096C9.2078 1.72816 11.4282 0.598362 13.8026 0.507362C16.2778 0.412162 18.7852 1.57416 20.3994 3.85056ZM13.552 6.98936L10.78 9.84816C10.5957 10.0379 10.4918 10.2915 10.49 10.556C10.4882 10.8205 10.5886 11.0755 10.7702 11.2678C10.8597 11.3601 10.9671 11.4333 11.0857 11.483C11.2043 11.5327 11.3318 11.5579 11.4604 11.557C11.589 11.5561 11.7161 11.5291 11.834 11.4777C11.9519 11.4263 12.0582 11.3516 12.1464 11.258L13.2482 10.1226V16.0572C13.2482 16.5682 13.6122 16.991 14.0854 17.0582L14.217 17.068C14.7504 17.068 15.183 16.6144 15.183 16.0572V10.1016L16.2764 11.23C16.366 11.3225 16.4734 11.3959 16.5921 11.4458C16.7109 11.4956 16.8385 11.5208 16.9673 11.5199C17.0961 11.519 17.2233 11.492 17.3414 11.4404C17.4594 11.3889 17.5658 11.314 17.654 11.2202C17.8381 11.0302 17.9417 10.7765 17.9433 10.512C17.9448 10.2476 17.8442 9.99266 17.6624 9.80056L14.9282 6.98236C14.8388 6.88994 14.7315 6.8166 14.6129 6.76677C14.4944 6.71695 14.3669 6.69166 14.2383 6.69245C14.1097 6.69323 13.9826 6.72007 13.8646 6.77134C13.7467 6.82261 13.6403 6.89586 13.552 6.98936Z" fill="white"/>
</svg>
