<svg width="52" height="52" viewBox="0 0 52 52" fill="none" xmlns="http://www.w3.org/2000/svg">
<rect x="1.5" y="1.5" width="49" height="49" rx="24.5" fill="white"/>
<rect x="1.5" y="1.5" width="49" height="49" rx="24.5" stroke="#A451E6" stroke-width="3"/>
<path d="M31.9531 31.3633V34H20.2812V31.75L25.8008 25.832C26.3555 25.2148 26.793 24.6719 27.1133 24.2031C27.4336 23.7266 27.6641 23.3008 27.8047 22.9258C27.9531 22.543 28.0273 22.1797 28.0273 21.8359C28.0273 21.3203 27.9414 20.8789 27.7695 20.5117C27.5977 20.1367 27.3438 19.8477 27.0078 19.6445C26.6797 19.4414 26.2734 19.3398 25.7891 19.3398C25.2734 19.3398 24.8281 19.4648 24.4531 19.7148C24.0859 19.9648 23.8047 20.3125 23.6094 20.7578C23.4219 21.2031 23.3281 21.707 23.3281 22.2695H19.9414C19.9414 21.2539 20.1836 20.3242 20.668 19.4805C21.1523 18.6289 21.8359 17.9531 22.7188 17.4531C23.6016 16.9453 24.6484 16.6914 25.8594 16.6914C27.0547 16.6914 28.0625 16.8867 28.8828 17.2773C29.7109 17.6602 30.3359 18.2148 30.7578 18.9414C31.1875 19.6602 31.4023 20.5195 31.4023 21.5195C31.4023 22.082 31.3125 22.6328 31.1328 23.1719C30.9531 23.7031 30.6953 24.2344 30.3594 24.7656C30.0312 25.2891 29.6328 25.8203 29.1641 26.3594C28.6953 26.8984 28.1758 27.457 27.6055 28.0352L24.6406 31.3633H31.9531Z" fill="#A451E6"/>
</svg>
