<svg width="52" height="52" viewBox="0 0 52 52" fill="none" xmlns="http://www.w3.org/2000/svg">
<rect x="1.5" y="1.5" width="49" height="49" rx="24.5" fill="white"/>
<rect x="1.5" y="1.5" width="49" height="49" rx="24.5" stroke="#A451E6" stroke-width="3"/>
<path d="M23.7383 24.0039H25.543C26.1211 24.0039 26.5977 23.9062 26.9727 23.7109C27.3477 23.5078 27.625 23.2266 27.8047 22.8672C27.9922 22.5 28.0859 22.0742 28.0859 21.5898C28.0859 21.1523 28 20.7656 27.8281 20.4297C27.6641 20.0859 27.4102 19.8203 27.0664 19.6328C26.7227 19.4375 26.2891 19.3398 25.7656 19.3398C25.3516 19.3398 24.9688 19.4219 24.6172 19.5859C24.2656 19.75 23.9844 19.9805 23.7734 20.2773C23.5625 20.5742 23.457 20.9336 23.457 21.3555H20.0703C20.0703 20.418 20.3203 19.6016 20.8203 18.9062C21.3281 18.2109 22.0078 17.668 22.8594 17.2773C23.7109 16.8867 24.6484 16.6914 25.6719 16.6914C26.8281 16.6914 27.8398 16.8789 28.707 17.2539C29.5742 17.6211 30.25 18.1641 30.7344 18.8828C31.2188 19.6016 31.4609 20.4922 31.4609 21.5547C31.4609 22.0938 31.3359 22.6172 31.0859 23.125C30.8359 23.625 30.4766 24.0781 30.0078 24.4844C29.5469 24.8828 28.9844 25.2031 28.3203 25.4453C27.6562 25.6797 26.9102 25.7969 26.082 25.7969H23.7383V24.0039ZM23.7383 26.5703V24.8242H26.082C27.0117 24.8242 27.8281 24.9297 28.5312 25.1406C29.2344 25.3516 29.8242 25.6562 30.3008 26.0547C30.7773 26.4453 31.1367 26.9102 31.3789 27.4492C31.6211 27.9805 31.7422 28.5703 31.7422 29.2188C31.7422 30.0156 31.5898 30.7266 31.2852 31.3516C30.9805 31.9688 30.5508 32.4922 29.9961 32.9219C29.4492 33.3516 28.8086 33.6797 28.0742 33.9062C27.3398 34.125 26.5391 34.2344 25.6719 34.2344C24.9531 34.2344 24.2461 34.1367 23.5508 33.9414C22.8633 33.7383 22.2383 33.4375 21.6758 33.0391C21.1211 32.6328 20.6758 32.125 20.3398 31.5156C20.0117 30.8984 19.8477 30.168 19.8477 29.3242H23.2344C23.2344 29.7617 23.3438 30.1523 23.5625 30.4961C23.7812 30.8398 24.082 31.1094 24.4648 31.3047C24.8555 31.5 25.2891 31.5977 25.7656 31.5977C26.3047 31.5977 26.7656 31.5 27.1484 31.3047C27.5391 31.1016 27.8359 30.8203 28.0391 30.4609C28.25 30.0938 28.3555 29.668 28.3555 29.1836C28.3555 28.5586 28.2422 28.0586 28.0156 27.6836C27.7891 27.3008 27.4648 27.0195 27.043 26.8398C26.6211 26.6602 26.1211 26.5703 25.543 26.5703H23.7383Z" fill="#A451E6"/>
</svg>
